HIERARCHY
ROOT root
{
	OFFSET 0.000000 0.000642 0.045086
	CHANNELS 6 Xposition Yposition Zposition Xrotation Yrotation Zrotation
	JOINT pelvis
	{
		OFFSET -0.002936 0.026773 0.927670
		CHANNELS 6 Xposition Yposition Zposition Xrotation Yrotation Zrotation
		JOINT thigh_R
		{
			OFFSET -0.109487 -0.026910 -0.119863
			CHANNELS 6 Xposition Yposition Zposition Xrotation Yrotation Zrotation
			JOINT calf_R
			{
				OFFSET -0.031978 -0.023263 -0.393771
				CHANNELS 3 Xrotation Yrotation Zrotation
				JOINT foot_R
				{
					OFFSET -0.052496 0.000902 -0.370102
					CHANNELS 3 Xrotation Yrotation Zrotation
					JOINT toes_R
					{
						OFFSET -0.009320 -0.126011 -0.069821
						CHANNELS 6 Xposition Yposition Zposition Xrotation Yrotation Zrotation
						End Site
						{
							OFFSET -0.004473 -0.046724 -0.003049
						}
					}
				}
				JOINT calf_twist_R
				{
					OFFSET 0.000000 0.000000 0.000000
					CHANNELS 6 Xposition Yposition Zposition Xrotation Yrotation Zrotation
					End Site
					{
						OFFSET -0.038816 0.005263 -0.254563
					}
				}
			}
			JOINT thigh_twist_R
			{
				OFFSET 0.000000 -0.000000 0.000000
				CHANNELS 6 Xposition Yposition Zposition Xrotation Yrotation Zrotation
				End Site
				{
					OFFSET -0.013447 -0.026672 -0.173442
				}
			}
		}
		JOINT thigh_L
		{
			OFFSET 0.115359 -0.026910 -0.119863
			CHANNELS 6 Xposition Yposition Zposition Xrotation Yrotation Zrotation
			JOINT calf_L
			{
				OFFSET 0.031978 -0.023263 -0.393771
				CHANNELS 3 Xrotation Yrotation Zrotation
				JOINT foot_L
				{
					OFFSET 0.052496 0.000902 -0.370102
					CHANNELS 3 Xrotation Yrotation Zrotation
					JOINT toes_L
					{
						OFFSET 0.009320 -0.126011 -0.069821
						CHANNELS 3 Xrotation Yrotation Zrotation
						End Site
						{
							OFFSET 0.004473 -0.046724 -0.003049
						}
					}
				}
				JOINT calf_twist_L
				{
					OFFSET 0.000000 0.000000 0.000000
					CHANNELS 6 Xposition Yposition Zposition Xrotation Yrotation Zrotation
					End Site
					{
						OFFSET 0.038816 0.005263 -0.254563
					}
				}
			}
			JOINT thigh_twist_L
			{
				OFFSET 0.000000 0.000000 0.000000
				CHANNELS 6 Xposition Yposition Zposition Xrotation Yrotation Zrotation
				End Site
				{
					OFFSET 0.013447 -0.026672 -0.173442
				}
			}
		}
		JOINT spine01
		{
			OFFSET -0.000052 -0.001333 0.006057
			CHANNELS 3 Xrotation Yrotation Zrotation
			JOINT spine02
			{
				OFFSET 0.002988 -0.035069 0.061561
				CHANNELS 3 Xrotation Yrotation Zrotation
				JOINT spine03
				{
					OFFSET 0.000000 0.008649 0.117635
					CHANNELS 3 Xrotation Yrotation Zrotation
					JOINT clavicle_L
					{
						OFFSET 0.031960 -0.002455 0.159580
						CHANNELS 6 Xposition Yposition Zposition Xrotation Yrotation Zrotation
						JOINT upperarm_L
						{
							OFFSET 0.106613 -0.013377 -0.022582
							CHANNELS 6 Xposition Yposition Zposition Xrotation Yrotation Zrotation
							JOINT lowerarm_L
							{
								OFFSET 0.233664 0.021966 -0.134813
								CHANNELS 3 Xrotation Yrotation Zrotation
								JOINT hand_L
								{
									OFFSET 0.202817 -0.038212 -0.103702
									CHANNELS 3 Xrotation Yrotation Zrotation
									JOINT thumb01_L
									{
										OFFSET 0.008269 -0.017364 -0.009129
										CHANNELS 6 Xposition Yposition Zposition Xrotation Yrotation Zrotation
										JOINT thumb02_L
										{
											OFFSET 0.007103 -0.025549 -0.027526
											CHANNELS 3 Xrotation Yrotation Zrotation
											JOINT thumb03_L
											{
												OFFSET 0.011035 -0.026258 -0.014218
												CHANNELS 3 Xrotation Yrotation Zrotation
												End Site
												{
													OFFSET 0.008927 -0.014147 -0.017737
												}
											}
										}
									}
									JOINT index00_L
									{
										OFFSET 0.015790 -0.019369 -0.010869
										CHANNELS 6 Xposition Yposition Zposition Xrotation Yrotation Zrotation
										JOINT index01_L
										{
											OFFSET 0.047864 -0.007217 -0.023292
											CHANNELS 3 Xrotation Yrotation Zrotation
											JOINT index02_L
											{
												OFFSET 0.026189 -0.000355 -0.020650
												CHANNELS 3 Xrotation Yrotation Zrotation
												JOINT index03_L
												{
													OFFSET 0.017813 0.001193 -0.013583
													CHANNELS 3 Xrotation Yrotation Zrotation
													End Site
													{
														OFFSET 0.013377 0.001373 -0.016250
													}
												}
											}
										}
									}
									JOINT middle00_L
									{
										OFFSET 0.016276 -0.006169 -0.012863
										CHANNELS 6 Xposition Yposition Zposition Xrotation Yrotation Zrotation
										JOINT middle01_L
										{
											OFFSET 0.049067 -0.003947 -0.017410
											CHANNELS 3 Xrotation Yrotation Zrotation
											JOINT middle02_L
											{
												OFFSET 0.029087 0.000312 -0.026941
												CHANNELS 3 Xrotation Yrotation Zrotation
												JOINT middle03_L
												{
													OFFSET 0.019190 0.000267 -0.015543
													CHANNELS 3 Xrotation Yrotation Zrotation
													End Site
													{
														OFFSET 0.014683 0.000017 -0.017510
													}
												}
											}
										}
									}
									JOINT ring00_L
									{
										OFFSET 0.017106 0.003470 -0.011997
										CHANNELS 6 Xposition Yposition Zposition Xrotation Yrotation Zrotation
										JOINT ring01_L
										{
											OFFSET 0.044984 0.002116 -0.016733
											CHANNELS 3 Xrotation Yrotation Zrotation
											JOINT ring02_L
											{
												OFFSET 0.028856 0.000400 -0.026983
												CHANNELS 3 Xrotation Yrotation Zrotation
												JOINT ring03_L
												{
													OFFSET 0.017620 0.000363 -0.013833
													CHANNELS 3 Xrotation Yrotation Zrotation
													End Site
													{
														OFFSET 0.015507 -0.000807 -0.015547
													}
												}
											}
										}
									}
									JOINT pinky00_L
									{
										OFFSET 0.014366 0.020048 -0.015014
										CHANNELS 6 Xposition Yposition Zposition Xrotation Yrotation Zrotation
										JOINT pinky01_L
										{
											OFFSET 0.041296 0.001442 -0.016227
											CHANNELS 3 Xrotation Yrotation Zrotation
											JOINT pinky02_L
											{
												OFFSET 0.024951 -0.000301 -0.020450
												CHANNELS 3 Xrotation Yrotation Zrotation
												JOINT pinky03_L
												{
													OFFSET 0.013007 -0.001157 -0.010280
													CHANNELS 3 Xrotation Yrotation Zrotation
													End Site
													{
														OFFSET 0.009963 -0.001160 -0.011403
													}
												}
											}
										}
									}
								}
								JOINT lowerarm_twist_L
								{
									OFFSET 0.000000 -0.000000 0.000000
									CHANNELS 6 Xposition Yposition Zposition Xrotation Yrotation Zrotation
									End Site
									{
										OFFSET 0.113147 -0.023106 -0.058600
									}
								}
							}
							JOINT upperarm_twist_L
							{
								OFFSET 0.000000 0.000000 0.000000
								CHANNELS 6 Xposition Yposition Zposition Xrotation Yrotation Zrotation
								End Site
								{
									OFFSET 0.131225 0.003005 -0.082365
								}
							}
						}
					}
					JOINT clavicle_R
					{
						OFFSET -0.031960 -0.002455 0.159580
						CHANNELS 6 Xposition Yposition Zposition Xrotation Yrotation Zrotation
						JOINT upperarm_R
						{
							OFFSET -0.106613 -0.013377 -0.022582
							CHANNELS 6 Xposition Yposition Zposition Xrotation Yrotation Zrotation
							JOINT lowerarm_R
							{
								OFFSET -0.233664 0.021966 -0.134813
								CHANNELS 3 Xrotation Yrotation Zrotation
								JOINT hand_R
								{
									OFFSET -0.202817 -0.038212 -0.103702
									CHANNELS 3 Xrotation Yrotation Zrotation
									JOINT thumb01_R
									{
										OFFSET -0.008269 -0.017364 -0.009129
										CHANNELS 6 Xposition Yposition Zposition Xrotation Yrotation Zrotation
										JOINT thumb02_R
										{
											OFFSET -0.007103 -0.025549 -0.027526
											CHANNELS 3 Xrotation Yrotation Zrotation
											JOINT thumb03_R
											{
												OFFSET -0.011035 -0.026258 -0.014218
												CHANNELS 3 Xrotation Yrotation Zrotation
												End Site
												{
													OFFSET -0.008927 -0.014147 -0.017737
												}
											}
										}
									}
									JOINT index00_R
									{
										OFFSET -0.015790 -0.019369 -0.010869
										CHANNELS 6 Xposition Yposition Zposition Xrotation Yrotation Zrotation
										JOINT index01_R
										{
											OFFSET -0.047864 -0.007217 -0.023292
											CHANNELS 3 Xrotation Yrotation Zrotation
											JOINT index02_R
											{
												OFFSET -0.026189 -0.000355 -0.020650
												CHANNELS 3 Xrotation Yrotation Zrotation
												JOINT index03_R
												{
													OFFSET -0.017813 0.001193 -0.013583
													CHANNELS 3 Xrotation Yrotation Zrotation
													End Site
													{
														OFFSET -0.013377 0.001373 -0.016250
													}
												}
											}
										}
									}
									JOINT middle00_R
									{
										OFFSET -0.016276 -0.006169 -0.012863
										CHANNELS 6 Xposition Yposition Zposition Xrotation Yrotation Zrotation
										JOINT middle01_R
										{
											OFFSET -0.049067 -0.003947 -0.017410
											CHANNELS 3 Xrotation Yrotation Zrotation
											JOINT middle02_R
											{
												OFFSET -0.029087 0.000312 -0.026941
												CHANNELS 3 Xrotation Yrotation Zrotation
												JOINT middle03_R
												{
													OFFSET -0.019190 0.000267 -0.015543
													CHANNELS 3 Xrotation Yrotation Zrotation
													End Site
													{
														OFFSET -0.014683 0.000017 -0.017510
													}
												}
											}
										}
									}
									JOINT ring00_R
									{
										OFFSET -0.017106 0.003470 -0.011997
										CHANNELS 6 Xposition Yposition Zposition Xrotation Yrotation Zrotation
										JOINT ring01_R
										{
											OFFSET -0.044984 0.002116 -0.016733
											CHANNELS 3 Xrotation Yrotation Zrotation
											JOINT ring02_R
											{
												OFFSET -0.028856 0.000400 -0.026983
												CHANNELS 3 Xrotation Yrotation Zrotation
												JOINT ring03_R
												{
													OFFSET -0.017620 0.000363 -0.013833
													CHANNELS 3 Xrotation Yrotation Zrotation
													End Site
													{
														OFFSET -0.015507 -0.000807 -0.015547
													}
												}
											}
										}
									}
									JOINT pinky00_R
									{
										OFFSET -0.014366 0.020048 -0.015014
										CHANNELS 6 Xposition Yposition Zposition Xrotation Yrotation Zrotation
										JOINT pinky01_R
										{
											OFFSET -0.041296 0.001442 -0.016227
											CHANNELS 3 Xrotation Yrotation Zrotation
											JOINT pinky02_R
											{
												OFFSET -0.024951 -0.000301 -0.020450
												CHANNELS 3 Xrotation Yrotation Zrotation
												JOINT pinky03_R
												{
													OFFSET -0.013007 -0.001157 -0.010280
													CHANNELS 3 Xrotation Yrotation Zrotation
													End Site
													{
														OFFSET -0.009963 -0.001160 -0.011403
													}
												}
											}
										}
									}
								}
								JOINT lowerarm_twist_R
								{
									OFFSET 0.000000 0.000000 0.000000
									CHANNELS 6 Xposition Yposition Zposition Xrotation Yrotation Zrotation
									End Site
									{
										OFFSET -0.113147 -0.023106 -0.058600
									}
								}
							}
							JOINT upperarm_twist_R
							{
								OFFSET 0.000000 0.000000 0.000000
								CHANNELS 6 Xposition Yposition Zposition Xrotation Yrotation Zrotation
								End Site
								{
									OFFSET -0.131225 0.003005 -0.082365
								}
							}
						}
					}
					JOINT neck
					{
						OFFSET -0.000000 -0.002726 0.194733
						CHANNELS 6 Xposition Yposition Zposition Xrotation Yrotation Zrotation
						JOINT head
						{
							OFFSET 0.000000 -0.047407 0.104388
							CHANNELS 3 Xrotation Yrotation Zrotation
							End Site
							{
								OFFSET -0.000000 -0.000839 0.155358
							}
						}
					}
					JOINT breast_L
					{
						OFFSET 0.075423 -0.033073 0.045626
						CHANNELS 6 Xposition Yposition Zposition Xrotation Yrotation Zrotation
						End Site
						{
							OFFSET 0.027052 -0.131754 -0.030994
						}
					}
					JOINT breast_R
					{
						OFFSET -0.075423 -0.033073 0.045626
						CHANNELS 6 Xposition Yposition Zposition Xrotation Yrotation Zrotation
						End Site
						{
							OFFSET -0.027052 -0.131754 -0.030994
						}
					}
				}
			}
		}
	}
}
MOTION
Frames: 4
Frame Time: 0.041667
0.000000 0.000642 0.045086 0.000000 0.000000 0.000000 -0.752016 0.189085 1.912691 6.162895 17.423208 -268.964107 -0.109487 -0.026910 -0.119863 -7.019809 -11.234568 -4.056082 29.838183 -3.327889 -3.273208 -51.824204 -7.383817 -4.365202 -0.009320 -0.126011 -0.069821 17.873628 -1.504971 4.196712 -0.000000 -0.000000 -0.000000 0.000002 -0.000002 -0.000001 0.000000 0.000000 0.000001 0.000002 0.000003 0.000000 0.115359 -0.026910 -0.119864 -7.960518 0.437287 3.719305 31.836075 3.663301 3.364706 -50.531461 15.760257 -1.501082 17.504528 1.635948 -4.447431 0.000000 -0.000000 -0.000000 0.000000 -0.000001 0.000001 -0.000000 0.000000 -0.000000 0.000000 -0.000002 -0.000001 -3.555802 -1.751698 -1.326272 7.997013 -2.253145 -0.647725 -2.071399 -2.652483 -0.283984 0.031960 -0.002455 0.159581 -0.000008 -0.000007 -0.000005 0.106614 -0.013377 -0.022582 61.361648 38.730530 -51.728984 -22.816534 -8.344500 -35.142232 27.635584 -15.266311 -19.508422 0.008269 -0.017363 -0.009130 0.000924 -0.000067 -0.000378 -0.000308 -0.000109 0.000230 -32.548133 -3.633804 6.844066 0.015791 -0.019369 -0.010870 -0.000007 -0.000022 -0.000002 -0.000179 0.014388 -0.000341 -44.632383 -17.655884 -41.840906 1.371939 -6.040486 -0.749977 0.016275 -0.006169 -0.012863 0.000004 0.000013 0.000001 -0.000648 0.015494 -0.000432 -0.000112 0.033342 0.000381 0.000282 0.071437 0.000418 0.017107 0.003471 -0.011996 -0.000004 -0.000013 -0.000001 -0.000005 0.017530 0.000235 -0.000668 0.031911 0.000154 0.000755 0.091898 -0.004036 0.014367 0.020048 -0.015015 -0.000001 -0.000000 0.000002 0.000250 0.017959 -0.000006 0.001923 0.039133 -0.002049 0.005972 0.104260 -0.005367 -0.000000 -0.000000 -0.000000 -0.000021 0.000677 0.000310 0.000000 0.000000 0.000001 -0.000008 0.001368 -0.000069 -0.031959 -0.002455 0.159580 -0.000003 0.000015 -0.000007 -0.106614 -0.013377 -0.022581 56.818373 -34.295425 51.250598 -22.187537 8.163031 34.287772 21.248126 12.562860 16.691620 -0.008269 -0.017364 -0.009130 0.001372 -0.000752 0.000200 -0.000076 -0.000412 0.000093 -13.540733 21.785594 -27.503727 -0.015791 -0.019369 -0.010870 -0.000000 0.000011 -0.000002 -0.000145 -0.013007 0.000296 -21.055481 39.069976 23.038723 1.359236 6.082370 0.666016 -0.016274 -0.006169 -0.012862 0.000003 0.000000 -0.000000 -0.000568 -0.013612 0.000375 -0.001186 -0.011791 0.000791 0.000543 -0.020167 -0.000668 -0.017107 0.003471 -0.011996 0.000001 0.000006 -0.000001 -0.000720 -0.016763 0.000434 -0.000649 -0.015894 0.000173 -0.000129 -0.042072 0.002319 -0.014367 0.020048 -0.015014 0.000005 0.000004 -0.000000 -0.000986 -0.017897 0.001034 0.000526 -0.022089 0.001599 0.000328 -0.056883 0.006362 -0.000001 -0.000000 -0.000000 0.000002 -0.000006 0.000004 0.000001 -0.000000 0.000001 -0.000002 -0.000082 -0.000004 0.000000 -0.002727 0.194733 -6.765670 31.422074 -45.291118 -5.400327 -9.512225 -14.710641 0.075424 -0.033073 0.045626 0.000424 0.000106 -0.000169 -0.075423 -0.033073 0.045627 0.000446 -0.000112 0.000180 
0.000000 0.000642 0.045086 0.000000 0.000000 0.000000 -0.751009 0.188465 1.911539 6.009574 17.094806 -269.010388 -0.109487 -0.026910 -0.119863 -6.503738 -11.578842 -3.552473 29.965457 -3.332237 -3.288926 -52.115201 -6.657502 -4.918061 -0.009320 -0.126011 -0.069822 16.297345 -1.516262 4.749282 -0.000000 -0.000000 -0.000000 0.000010 -0.000000 0.000000 0.000000 -0.000000 0.000000 0.000000 0.000004 0.000000 0.115359 -0.026910 -0.119864 -7.323530 0.107406 4.013487 31.509254 3.652304 3.339529 -50.505755 14.877047 -0.766632 12.810334 1.743397 -6.170714 0.000000 -0.000000 -0.000000 0.000001 -0.000002 0.000001 -0.000000 -0.000000 0.000000 -0.000000 -0.000003 -0.000000 -3.508130 -2.052598 -1.323867 7.743505 -2.307882 -0.501907 -2.379041 -2.548159 -0.240586 0.031960 -0.002455 0.159581 -0.000006 -0.000008 -0.000005 0.106614 -0.013377 -0.022582 60.679763 42.155641 -52.557602 -20.950859 -8.352553 -32.233138 30.048881 -16.371499 -20.504486 0.008269 -0.017363 -0.009130 0.000920 -0.000071 -0.000377 -0.000307 -0.000110 0.000228 -32.534288 -3.633513 6.851406 0.015791 -0.019369 -0.010870 -0.000006 -0.000024 -0.000002 -0.000181 0.014388 -0.000341 -44.618146 -17.661341 -41.831388 1.371935 -6.040484 -0.749976 0.016275 -0.006169 -0.012863 0.000002 0.000013 0.000000 -0.000646 0.015497 -0.000433 -0.000114 0.033338 0.000381 0.000280 0.071439 0.000420 0.017107 0.003471 -0.011996 -0.000004 -0.000016 -0.000002 -0.000007 0.017527 0.000235 -0.000665 0.031911 0.000153 0.000754 0.091896 -0.004034 0.014367 0.020048 -0.015015 -0.000002 -0.000000 0.000001 0.000249 0.017965 -0.000004 0.001922 0.039130 -0.002047 0.005972 0.104265 -0.005368 -0.000000 -0.000000 -0.000000 -0.000020 0.000679 0.000311 0.000000 0.000000 0.000000 -0.000005 0.001363 -0.000064 -0.031959 -0.002455 0.159580 -0.000005 0.000014 -0.000006 -0.106613 -0.013377 -0.022581 56.582742 -35.375783 50.921335 -21.356856 8.169977 32.988967 22.186580 12.939185 17.120957 -0.008269 -0.017364 -0.009130 0.001372 -0.000760 0.000193 -0.000076 -0.000414 0.000092 -13.749383 20.985191 -27.064971 -0.015791 -0.019369 -0.010870 -0.000003 0.000013 -0.000000 -0.000141 -0.013012 0.000295 -21.416617 38.172530 23.307355 1.359235 6.082378 0.666013 -0.016275 -0.006169 -0.012862 0.000002 0.000004 0.000001 -0.000563 -0.013603 0.000379 -0.001184 -0.011799 0.000790 0.000542 -0.020172 -0.000672 -0.017107 0.003471 -0.011996 0.000003 -0.000001 0.000002 -0.000719 -0.016765 0.000437 -0.000645 -0.015891 0.000169 -0.000128 -0.042070 0.002317 -0.014367 0.020048 -0.015014 0.000003 0.000000 0.000001 -0.000989 -0.017899 0.001031 0.000526 -0.022089 0.001600 0.000325 -0.056883 0.006362 -0.000001 -0.000000 -0.000001 0.000000 -0.000003 0.000002 0.000001 -0.000000 0.000000 -0.000002 -0.000082 -0.000005 0.000000 -0.002726 0.194732 -8.821111 28.371011 -38.974999 -6.403429 -10.235453 -13.047598 0.075424 -0.033073 0.045625 0.000425 0.000106 -0.000168 -0.075423 -0.033073 0.045626 0.000443 -0.000112 0.000181 
0.000000 0.000642 0.045086 0.000000 0.000000 0.000000 -0.751391 0.189682 1.911814 6.308162 17.478179 -268.253439 -0.109487 -0.026910 -0.119863 -6.869013 -11.229213 -3.380261 29.689938 -3.325887 -3.266075 -52.662818 -8.356901 -3.434903 -0.009320 -0.126011 -0.069821 25.080453 -1.647409 1.674688 -0.000000 0.000000 0.000000 -0.000004 -0.000000 0.000000 0.000000 -0.000000 0.000001 0.000001 0.000003 0.000000 0.115359 -0.026910 -0.119864 -7.730718 1.376017 1.436434 31.617041 3.656589 3.350592 -51.623266 13.349244 0.502375 14.036546 1.701428 -5.721398 0.000000 -0.000000 -0.000000 -0.000001 -0.000003 -0.000001 -0.000000 0.000000 -0.000000 0.000001 -0.000002 -0.000000 -4.137749 -2.977690 -1.514693 7.396966 -2.375316 -0.261067 -2.456064 -2.059964 -0.160716 0.031960 -0.002455 0.159581 -0.000004 -0.000007 -0.000004 0.106614 -0.013378 -0.022582 62.613253 39.662147 -53.560738 -21.652639 -8.360569 -33.327297 28.786946 -15.788162 -19.988637 0.008268 -0.017363 -0.009129 0.000925 -0.000068 -0.000376 -0.000301 -0.000107 0.000229 -32.578804 -3.273350 6.631156 0.015791 -0.019369 -0.010870 -0.000006 -0.000019 -0.000000 -0.000179 0.014391 -0.000343 -44.706163 -17.241380 -41.928783 1.371933 -6.040481 -0.749976 0.016274 -0.006169 -0.012862 0.000002 0.000013 0.000000 -0.000646 0.015494 -0.000432 -0.000112 0.033336 0.000380 0.000283 0.071446 0.000420 0.017107 0.003471 -0.011996 -0.000006 -0.000013 -0.000001 -0.000007 0.017527 0.000235 -0.000666 0.031914 0.000153 0.000755 0.091898 -0.004035 0.014367 0.020048 -0.015014 -0.000002 -0.000001 0.000002 0.000248 0.017957 -0.000006 0.001924 0.039135 -0.002047 0.005972 0.104269 -0.005367 0.000000 -0.000000 -0.000000 -0.000019 0.000676 0.000308 0.000000 0.000000 0.000000 -0.000008 0.001366 -0.000065 -0.031959 -0.002455 0.159580 -0.000004 0.000016 -0.000004 -0.106613 -0.013378 -0.022581 56.083694 -36.256048 49.201565 -21.481382 8.170154 33.183651 22.711619 13.152965 17.358955 -0.008269 -0.017364 -0.009130 0.001365 -0.000759 0.000196 -0.000074 -0.000412 0.000094 -14.162107 20.587428 -26.580745 -0.015791 -0.019369 -0.010870 -0.000007 0.000011 0.000000 -0.000140 -0.013012 0.000292 -21.986256 37.702859 23.775308 1.359236 6.082369 0.666014 -0.016274 -0.006169 -0.012862 0.000000 0.000004 -0.000000 -0.000566 -0.013606 0.000378 -0.001188 -0.011796 0.000789 0.000542 -0.020172 -0.000669 -0.017107 0.003471 -0.011996 -0.000000 0.000001 -0.000000 -0.000720 -0.016761 0.000437 -0.000643 -0.015893 0.000168 -0.000128 -0.042077 0.002319 -0.014367 0.020048 -0.015014 -0.000001 0.000005 0.000001 -0.000992 -0.017896 0.001032 0.000526 -0.022087 0.001598 0.000329 -0.056883 0.006360 -0.000000 -0.000000 -0.000000 0.000005 -0.000004 0.000008 0.000001 -0.000000 0.000001 -0.000002 -0.000078 -0.000001 0.000000 -0.002727 0.194733 -10.251363 26.886954 -34.304427 -7.669805 -10.540086 -12.015230 0.075423 -0.033073 0.045625 0.000430 0.000106 -0.000165 -0.075423 -0.033073 0.045626 0.000446 -0.000111 0.000181 
0.000000 0.000642 0.045086 0.000000 0.000000 0.000000 -0.749979 0.188809 1.909213 6.379024 16.994405 -269.216551 -0.109487 -0.026910 -0.119862 -6.250312 -11.454144 -3.092689 29.848258 -3.329592 -3.279271 -52.870411 -5.205416 -5.952010 -0.009320 -0.126011 -0.069821 15.230728 -1.532676 5.122921 -0.000000 -0.000000 -0.000000 0.000003 -0.000002 -0.000000 0.000000 0.000000 0.000001 0.000002 0.000004 -0.000000 0.115359 -0.026910 -0.119863 -7.285994 0.224237 5.546907 31.708108 3.659775 3.358356 -51.596717 15.090852 -0.909744 10.286088 1.860276 -7.092774 0.000000 -0.000000 -0.000000 -0.000003 -0.000001 -0.000000 -0.000000 0.000000 -0.000000 0.000002 -0.000003 0.000000 -4.079789 -1.772311 -0.811368 7.698300 -2.651101 0.041905 -2.125051 -3.113032 0.045618 0.031960 -0.002455 0.159581 -0.000007 -0.000008 -0.000005 0.106614 -0.013377 -0.022582 62.930631 38.193024 -53.899591 -22.252859 -8.356837 -34.263279 27.999614 -15.430225 -19.661229 0.008269 -0.017363 -0.009129 0.000922 -0.000075 -0.000380 -0.000298 -0.000109 0.000232 -31.829754 -3.896328 7.350034 0.015791 -0.019369 -0.010870 -0.000007 -0.000022 -0.000003 -0.000181 0.014387 -0.000342 -43.828101 -17.988066 -41.301713 1.371938 -6.040477 -0.749977 0.016274 -0.006169 -0.012862 0.000003 0.000011 -0.000000 -0.000646 0.015499 -0.000432 -0.000113 0.033342 0.000381 0.000282 0.071439 0.000419 0.017107 0.003471 -0.011996 -0.000005 -0.000019 -0.000001 -0.000006 0.017527 0.000235 -0.000667 0.031909 0.000152 0.000756 0.091900 -0.004034 0.014367 0.020048 -0.015014 -0.000001 -0.000007 0.000000 0.000247 0.017957 -0.000007 0.001923 0.039137 -0.002047 0.005971 0.104265 -0.005367 0.000000 -0.000000 -0.000001 -0.000020 0.000679 0.000309 0.000000 0.000000 0.000000 -0.000006 0.001368 -0.000061 -0.031959 -0.002455 0.159580 -0.000002 0.000015 -0.000006 -0.106613 -0.013377 -0.022581 56.157829 -35.480975 48.688768 -22.222902 8.162307 34.343137 22.382492 13.024538 17.210506 -0.008269 -0.017364 -0.009130 0.001369 -0.000756 0.000195 -0.000084 -0.000417 0.000094 -13.466442 20.543163 -27.159385 -0.015791 -0.019369 -0.010870 -0.000005 0.000014 -0.000000 -0.000146 -0.013005 0.000294 -21.111620 37.705424 23.027879 1.359233 6.082374 0.666015 -0.016274 -0.006169 -0.012862 -0.000004 0.000004 -0.000000 -0.000565 -0.013610 0.000377 -0.001186 -0.011794 0.000792 0.000545 -0.020172 -0.000670 -0.017107 0.003471 -0.011996 -0.000006 0.000002 0.000001 -0.000718 -0.016758 0.000437 -0.000644 -0.015893 0.000170 -0.000130 -0.042070 0.002320 -0.014367 0.020048 -0.015014 -0.000002 0.000007 -0.000001 -0.000991 -0.017899 0.001032 0.000527 -0.022083 0.001600 0.000327 -0.056881 0.006362 -0.000000 -0.000000 -0.000000 0.000002 -0.000003 0.000006 0.000000 -0.000000 0.000000 -0.000003 -0.000076 -0.000003 0.000000 -0.002726 0.194733 -12.373174 23.189742 -29.172134 -7.490990 -11.142020 -10.002835 0.075424 -0.033073 0.045626 0.000426 0.000107 -0.000169 -0.075423 -0.033073 0.045627 0.000446 -0.000112 0.000180 
